HIERARCHY
ROOT Hips
{
	OFFSET 0.000000 0.000000 0.000000 
	CHANNELS 6 Xposition Yposition Zposition Yrotation Zrotation Xrotation 
	JOINT Lumbar
	{
		OFFSET 0.000000 0.000000 0.000000 
		CHANNELS 3 Zrotation Xrotation Yrotation
		JOINT Neck
		{
			OFFSET 0.000000 0.445665 0.000000 
			CHANNELS 3 Zrotation Xrotation Yrotation
			End Site
			{
				OFFSET 0.000000 0.227535 0.000000 
			}
		}
		JOINT RightShoulder
		{
			OFFSET 0.019635 0.377685 0.194865 
			CHANNELS 3 Zrotation Xrotation Yrotation
			JOINT RightElbow
			{
				OFFSET 0.000000 -0.243375 0.000000 
				CHANNELS 2 Zrotation Yrotation
				JOINT RightWrist
				{
					OFFSET 0.000000 -0.264825 0.000000 
					CHANNELS 2 Zrotation Xrotation
					End Site
					{
						OFFSET 0.006600 -0.176220 0.000990 
					}
				}
			}
		}
		JOINT LeftShoulder
		{
			OFFSET 0.019635 0.377685 -0.194865 
			CHANNELS 3 Zrotation Xrotation Yrotation
			JOINT LeftElbow
			{
				OFFSET 0.000000 -0.243375 0.000000 
				CHANNELS 2 Zrotation Yrotation
				JOINT LeftWrist
				{
					OFFSET 0.000000 -0.264825 0.000000 
					CHANNELS 2 Zrotation Xrotation
					End Site
					{
						OFFSET 0.006600 -0.176220 -0.000990 
					}
				}
			}
		}
	}
	JOINT RightHip
	{
		OFFSET 0.052140 -0.069960 0.075570 
		CHANNELS 3 Zrotation Xrotation Yrotation
		JOINT RightKnee
		{
			OFFSET 0.000000 -0.402270 0.000000 
			CHANNELS 1 Zrotation
			JOINT RightAnkle
			{
				OFFSET 0.000000 -0.404085 0.000000 
				CHANNELS 3 Zrotation Xrotation Yrotation
				End Site
				{
					OFFSET 0.204105 -0.089430 0.008415 
				}
			}
		}
	}
	JOINT LeftHip
	{
		OFFSET 0.052140 -0.069960 -0.075570 
		CHANNELS 3 Zrotation Xrotation Yrotation
		JOINT LeftKnee
		{
			OFFSET 0.000000 -0.402270 0.000000 
			CHANNELS 1 Zrotation
			JOINT LeftAnkle
			{
				OFFSET 0.000000 -0.404085 0.000000 
				CHANNELS 3 Zrotation Xrotation Yrotation
				End Site
				{
					OFFSET 0.204105 -0.089430 -0.008415 
				}
			}
		}
	}
}
MOTION
Frames: 30
Frame Time: 0.02
1.17346 0.15145 -0.85871 381.38576 -29.78338 -7.54386 1.02752 6.46511 -2.35963 -45.92457 -20.36998 -0.83075 -51.15 -32.48466 4.92565 93.3689 79.64117 2.42899 -7.42887 -26.54191 24.18682 3.03795 69.04748 -81.74889 -3.28432 4.11527 67.41543 -10.39833 -10.97247 -62.3638 -6.0187 -4.17254 -2.79892 75.58303 15.9523 -0.60551 -67.38553 -8.3806 4.21446 2.95839
1.1657 0.13991 -0.86112 381.0619 -30.40061 -7.16947 0.98216 6.52436 -2.87858 -46.5234 -21.71696 -0.83076 -51.60349 -32.4872 5.1689 93.95911 79.6493 2.20009 -7.08287 -24.85575 24.60474 3.52271 67.97275 -85.86217 -5.23552 5.09974 70.35783 -11.10581 -9.69484 -65.04735 -5.9985 -4.1594 -2.79132 77.72766 15.52897 -0.43281 -69.54221 -8.20062 4.27081 2.97991
1.15824 0.12786 -0.8635 380.65881 -31.32006 -6.72657 1.37406 6.4534 -3.23105 -47.29876 -23.15167 -0.83076 -51.95467 -32.42453 5.63707 94.38888 79.67015 1.87886 -6.4685 -22.79729 24.83621 4.22507 66.67026 -91.11884 -7.74972 6.50485 73.68993 -11.7451 -8.20285 -67.66474 -5.98891 -4.15134 -2.78786 80.42645 14.98959 -0.09391 -71.99199 -8.13423 4.36161 3.02705
1.15071 0.11601 -0.86588 380.30194 -32.04048 -6.32065 1.53243 6.43321 -3.64738 -47.99176 -24.47937 -0.83076 -52.34144 -32.37454 5.98774 94.86442 79.68648 1.59813 -6.00546 -20.93267 25.16538 4.80767 65.51846 -95.61108 -9.91808 7.65328 76.76848 -12.40832 -6.82267 -70.30411 -5.97404 -4.14025 -2.78203 82.80736 14.5187 0.16791 -74.30913 -8.01299 4.43381 3.06067
1.14292 0.10424 -0.86833 379.90788 -33.01387 -5.89096 1.82553 6.45075 -4.11945 -48.69571 -26.09402 -0.83076 -52.77924 -32.39154 6.40328 95.45872 79.69343 1.32657 -5.42683 -18.95626 25.45467 5.46305 64.16503 -101.10327 -12.45076 9.06374 80.16307 -13.09994 -5.37837 -72.98106 -5.96156 -4.13275 -2.77853 85.46533 13.9735 0.43671 -76.63789 -7.89947 4.51589 3.10037
1.13574 0.09221 -0.87061 379.5709 -33.53438 -5.49477 1.94863 6.35895 -4.43494 -49.41795 -27.13287 -0.83076 -53.08286 -32.25676 6.73639 95.76604 79.72423 1.0139 -5.02075 -17.12646 25.77497 6.02433 63.17622 -104.82391 -14.37264 10.03893 82.99273 -13.71679 -4.01928 -75.56099 -5.94649 -4.11877 -2.77105 87.67689 13.55825 0.73009 -79.00432 -7.79917 4.58658 3.13422
1.13011 0.07954 -0.87247 379.40225 -32.73723 -5.20051 1.46986 5.98389 -4.34181 -50.14891 -26.529 -0.83076 -53.05994 -31.70048 6.79518 95.31669 79.82126 0.59689 -5.17249 -15.80173 26.25145 6.27147 63.27638 -103.0354 -14.36457 9.64613 84.18733 -14.14229 -2.93224 -77.90913 -5.9213 -4.08565 -2.75152 88.53886 13.53351 1.05233 -81.43132 -7.70694 4.61713 3.14556
1.12509 0.06664 -0.87414 379.29457 -31.47357 -4.94362 0.81122 5.50504 -4.09884 -50.89181 -25.34678 -0.83076 -52.90049 -30.99752 6.76251 94.58261 79.94188 0.14357 -5.50336 -14.63641 26.75889 6.41753 63.74643 -99.48397 -13.74146 8.81317 84.79645 -14.49482 -1.94162 -80.15716 -5.89317 -4.0458 -2.72782 88.92892 13.6439 1.39275 -83.8786 -7.62508 4.6354 3.1504
1.11982 0.05387 -0.87586 379.16351 -30.42038 -4.67402 0.25286 5.08216 -3.9347 -51.62791 -24.44999 -0.83076 -52.79205 -30.37421 6.76533 93.98245 80.05002 -0.28495 -5.74079 -13.39401 27.2343 6.61436 64.03142 -96.96653 -13.4719 8.22514 85.66279 -14.8827 -0.91734 -82.43882 -5.86654 -4.0089 -2.70598 89.52393 13.69173 1.72436 -86.29722 -7.53966 4.65986 3.15856
1.11447 0.04097 -0.87772 379.01098 -29.38483 -4.3834 -0.36924 4.61857 -3.72005 -52.37546 -23.46427 -0.83076 -52.73107 -29.69384 6.79851 93.36381 80.1658 -0.75166 -6.01923 -12.16012 27.78018 6.80325 64.38285 -93.52259 -12.91535 7.46463 86.58389 -15.26126 0.15762 -84.77174 -5.83952 -3.97247 -2.68434 90.18052 13.74108 2.06607 -88.81089 -7.45304 4.68306 3.16611
1.10942 0.02832 -0.87925 378.91935 -28.19688 -4.14707 -0.90626 4.21565 -3.57655 -53.10038 -22.52115 -0.83076 -52.53463 -29.09817 6.74775 92.71044 80.27129 -1.14626 -6.25894 -10.94861 28.18784 6.97545 64.68309 -91.5541 -12.79554 6.95018 87.24192 -15.63986 1.10099 -86.97063 -5.81258 -3.93361 -2.66137 90.58687 13.81983 2.3864 -91.12436 -7.37014 4.70531 3.17299
1.105 0.01622 -0.87995 378.97531 -26.70925 -4.04551 -1.1712 4.01606 -3.67182 -53.75251 -21.87224 -0.83076 -52.04584 -28.7743 6.45202 92.09819 80.3415 -1.33245 -6.34315 -9.78598 28.21563 7.18046 64.7836 -94.26645 -14.09659 7.24902 87.35631 -16.06218 1.70572 -88.86026 -5.78561 -3.88769 -2.63461 90.43754 13.95629 2.66376 -92.90463 -7.29297 4.72963 3.18028
1.10088 0.00441 -0.88031 379.09197 -25.08168 -3.99867 -1.34472 3.87987 -3.84359 -54.38154 -21.27963 -0.83076 -51.41761 -28.54076 6.0801 91.4499 80.40088 -1.44451 -6.38441 -8.63833 28.10181 7.36065 64.81477 -98.48741 -15.84422 7.80387 87.21646 -16.48282 2.17983 -90.61149 -5.75897 -3.8399 -2.60686 90.04584 14.11626 2.91423 -94.47625 -7.21907 4.75292 3.18689
1.09665 -0.00742 -0.88078 379.18485 -23.51189 -3.93117 -1.55842 3.7084 -3.97753 -55.02561 -20.63721 -0.83076 -50.82119 -28.26476 5.7657 90.77359 80.46567 -1.59026 -6.4498 -7.46744 28.04828 7.51609 64.85807 -101.89524 -17.34153 8.2221 87.16559 -16.88741 2.71216 -92.4032 -5.73275 -3.79422 -2.58029 89.74976 14.26008 3.16278 -96.12624 -7.14438 4.77539 3.19328
1.09231 -0.01975 -0.8814 379.26346 -21.94999 -3.84755 -1.78594 3.56029 -4.11929 -55.65267 -20.07501 -0.83076 -50.35034 -27.98918 5.35311 90.27105 80.52851 -1.73706 -6.50187 -6.36744 28.01523 7.82172 64.9969 -105.7751 -19.01505 8.71022 87.2082 -17.35951 3.24695 -94.28808 -5.70397 -3.74294 -2.55046 89.50033 14.43252 3.47205 -97.84812 -7.06699 4.80287 3.20169
1.08827 -0.03094 -0.88165 379.38576 -20.34517 -3.80955 -1.95812 3.38025 -4.26465 -56.30745 -19.36903 -0.83076 -49.59017 -27.73656 5.1262 89.40633 80.59343 -1.86391 -6.5691 -5.12609 27.90254 7.8081 64.91432 -109.05994 -20.43889 9.11999 87.00142 -17.69266 3.74574 -95.94474 -5.68071 -3.70305 -2.52729 89.10048 14.54802 3.64788 -99.36847 -6.99611 4.81985 3.20581
1.08491 -0.03922 -0.88093 379.6106 -18.65177 -3.88824 -2.02142 3.09512 -4.40422 -57.0607 -18.23481 -0.83076 -48.0346 -27.52247 5.44742 87.51267 80.65703 -1.94942 -6.68872 -3.45014 27.62985 6.93466 64.24588 -110.27699 -21.03574 9.24591 86.18621 -17.63316 4.18636 -97.02737 -5.67197 -3.69438 -2.5224 88.36115 14.51137 3.46489 -100.39911 -6.93996 4.8079 3.19832
1.08185 -0.04633 -0.87986 379.87743 -16.92328 -4.01004 -2.02736 2.77671 -4.54488 -57.8389 -16.96061 -0.83076 -46.19856 -27.32984 5.95545 85.26468 80.72347 -2.01717 -6.82409 -1.63866 27.27694 5.73854 63.35375 -110.8611 -21.37302 9.28721 85.12845 -17.43586 4.5939 -97.88135 -5.66889 -3.69739 -2.52435 87.47825 14.41481 3.14841 -101.23104 -6.89061 4.78545 3.18652
1.07872 -0.05389 -0.87896 380.12709 -15.21577 -4.10915 -2.04451 2.47465 -4.684 -58.59569 -15.76425 -0.83076 -44.51239 -27.12967 6.36736 83.20445 80.79653 -2.09683 -6.95147 0.08543 26.94414 4.68014 62.55635 -111.78179 -21.8522 9.3726 84.17267 -17.30835 5.01104 -98.82605 -5.66363 -3.69555 -2.52345 86.65224 14.33671 2.89025 -102.14356 -6.83974 4.76808 3.17673
1.07534 -0.06182 -0.87797 380.37157 -13.48113 -4.22307 -2.12109 2.1685 -4.83056 -59.39672 -14.5074 -0.83076 -42.72884 -26.92234 6.82386 81.02801 80.84125 -2.16128 -7.08138 1.9195 26.67576 3.65773 61.78528 -112.55234 -22.25038 9.44285 83.24196 -17.15107 5.44683 -99.82196 -5.65673 -3.69175 -2.52144 85.85184 14.29276 2.63883 -103.09 -6.78249 4.74964 3.16685
1.07255 -0.06868 -0.87711 380.63511 -11.79744 -4.3159 -2.06169 1.86351 -4.96033 -60.10867 -13.34518 -0.83076 -41.08062 -26.73496 7.23296 79.01236 80.93901 -2.24969 -7.20978 3.55478 26.25558 2.48499 60.90803 -113.45964 -22.74381 9.5213 82.20546 -17.02237 5.83722 -100.65822 -5.65457 -3.6948 -2.52334 84.96839 14.16788 2.34483 -103.9211 -6.73994 4.73063 3.15598
1.07134 -0.07287 -0.87669 380.94829 -10.25682 -4.33758 -1.63917 1.55833 -5.04829 -60.59593 -12.45744 -0.83076 -39.8977 -26.58753 7.46557 77.50703 81.23375 -2.44462 -7.33574 4.62706 25.43985 0.96799 59.78275 -114.95089 -23.61612 9.64242 80.93256 -17.0131 6.11416 -101.11401 -5.66427 -3.71426 -2.53461 83.88246 13.7922 1.94107 -104.48455 -6.73773 4.71538 3.14469
1.07073 -0.07602 -0.87642 381.27744 -8.77061 -4.33673 -1.08289 1.25746 -5.11802 -60.98795 -11.67356 -0.83076 -38.85624 -26.46059 7.64486 76.17929 81.56739 -2.65616 -7.45951 5.49169 24.47403 -0.68759 58.55968 -116.58652 -24.58235 9.77387 79.56359 -17.03638 6.34615 -101.41664 -5.67851 -3.74012 -2.54952 82.72085 13.34419 1.50329 -104.93926 -6.74993 4.69947 3.13236
1.06985 -0.07964 -0.87608 381.59429 -7.2643 -4.34741 -0.58893 0.96171 -5.19262 -61.40536 -10.85566 -0.83076 -37.73674 -26.33066 7.84824 74.78439 81.85584 -2.83908 -7.57996 6.43822 23.57508 -2.27416 57.38885 -118.11238 -25.46772 9.89948 78.24236 -17.03994 6.59739 -101.78751 -5.6906 -3.7629 -2.56264 81.60046 12.95755 1.09821 -105.44351 -6.75438 4.68192 3.1196
1.06896 -0.08323 -0.87575 381.93428 -5.73708 -4.35407 -0.08494 0.63438 -5.28184 -61.898 -9.97697 -0.83076 -36.6689 -26.17596 8.05669 73.32181 82.28047 -3.11751 -7.71628 7.43979 22.67911 -3.89715 56.18024 -119.79556 -26.50116 10.02608 76.89528 -17.0583 6.8539 -102.15714 -5.70329 -3.787 -2.57666 80.4456 12.45126 0.6179 -105.94078 -6.76355 4.67188 3.1103
1.06821 -0.08664 -0.87544 382.22888 -4.26686 -4.36334 0.42727 0.37497 -5.3361 -62.21246 -9.25176 -0.83076 -35.52636 -26.07604 8.24201 72.0446 82.40566 -3.19215 -7.82244 8.27857 21.74211 -5.4734 55.02626 -121.2034 -27.25726 10.15544 75.58237 -17.05683 7.08727 -102.49466 -5.71567 -3.80948 -2.58946 79.34705 12.17435 0.28515 -106.4286 -6.76696 4.64656 3.09383
1.06774 -0.08984 -0.87514 382.39761 -2.94159 -4.38373 0.94565 0.29605 -5.29958 -62.04499 -8.92205 -0.83076 -34.182 -26.1338 8.35508 71.25891 81.91764 -2.78132 -7.81356 8.69197 20.73182 -6.88198 54.08204 -121.72714 -27.17624 10.27829 74.39012 -16.98035 7.28474 -102.79329 -5.72686 -3.82784 -2.59899 78.4207 12.57905 0.39284 -106.92527 -6.74495 4.57591 3.05592
1.06738 -0.0929 -0.87485 382.51917 -1.67235 -4.40765 1.46456 0.28654 -5.22826 -61.70345 -8.74419 -0.83077 -32.75188 -26.24353 8.45038 70.65146 81.09197 -2.15256 -7.77956 8.95251 19.68579 -8.23835 53.1919 -121.98577 -26.8217 10.40579 73.23684 -16.88539 7.45749 -103.06365 -5.73743 -3.84395 -2.60697 77.55622 13.21221 0.6462 -107.416 -6.71802 4.49047 3.01119
1.06695 -0.096 -0.87455 382.66005 -0.37643 -4.43072 1.97209 0.2494 -5.17195 -61.45064 -8.49979 -0.83077 -31.33664 -26.32214 8.56615 69.94867 80.26593 -1.56674 -7.77921 9.30047 18.65366 -9.61962 52.25376 -122.43012 -26.62717 10.53957 72.06443 -16.80816 7.63058 -103.34015 -5.74775 -3.85973 -2.61495 76.6634 13.72041 0.81748 -107.90459 -6.69684 4.41412 2.97089
1.06664 -0.09915 -0.87427 382.81089 0.91458 -4.44966 2.53064 0.19612 -5.11829 -61.15548 -8.24963 -0.83077 -30.02721 -26.43402 8.62537 69.31106 80.06297 -1.20673 -7.68823 9.56754 17.62379 -10.99951 51.40632 -122.61429 -26.29099 10.63956 70.89226 -16.69419 7.84804 -103.63988 -5.76045 -3.88133 -2.62596 75.76255 14.31316 1.05486 -108.40828 -6.66007 4.32811 2.92505
